<mxfile host="app.diagrams.net" modified="2024-06-12T02:02:49.461Z" agent="Mozilla/5.0 (X11; Linux x86_64) AppleWebKit/537.36 (KHTML, like Gecko) Chrome/116.0.0.0 Safari/537.36" etag="L-byh3CxXUz69Wl__yXR" version="24.5.3" type="github">
  <diagram name="Page-1" id="2YBvvXClWsGukQMizWep">
    <mxGraphModel dx="1146" dy="650" grid="1" gridSize="11" guides="1" tooltips="1" connect="1" arrows="1" fold="1" page="1" pageScale="1" pageWidth="1100" pageHeight="1700" math="0" shadow="0">
      <root>
        <mxCell id="0" />
        <mxCell id="1" parent="0" />
        <mxCell id="s-xXhrgxncU4U6OP28lx-1" value="" style="shape=umlLifeline;perimeter=lifelinePerimeter;whiteSpace=wrap;html=1;container=1;dropTarget=0;collapsible=0;recursiveResize=0;outlineConnect=0;portConstraint=eastwest;newEdgeStyle={&quot;curved&quot;:0,&quot;rounded&quot;:0};participant=umlActor;" parent="1" vertex="1">
          <mxGeometry x="30" y="40" width="20" height="708" as="geometry" />
        </mxCell>
        <mxCell id="s-xXhrgxncU4U6OP28lx-6" value="UsernamePasswordAuthenticationFilter" style="shape=umlLifeline;perimeter=lifelinePerimeter;whiteSpace=wrap;html=1;container=1;dropTarget=0;collapsible=0;recursiveResize=0;outlineConnect=0;portConstraint=eastwest;newEdgeStyle={&quot;curved&quot;:0,&quot;rounded&quot;:0};" parent="1" vertex="1">
          <mxGeometry x="66" y="40" width="220" height="708" as="geometry" />
        </mxCell>
        <mxCell id="2gi-IcAWOZ9MMK4t8qeL-5" value="调用内部obtainXxx方法获&lt;div&gt;取请求中的帐号和密码&lt;/div&gt;" style="html=1;align=left;spacingLeft=2;endArrow=block;rounded=0;edgeStyle=orthogonalEdgeStyle;curved=0;rounded=0;" parent="s-xXhrgxncU4U6OP28lx-6" target="s-xXhrgxncU4U6OP28lx-6" edge="1">
          <mxGeometry x="-0.8443" y="-22" relative="1" as="geometry">
            <mxPoint x="109" y="103" as="sourcePoint" />
            <Array as="points">
              <mxPoint x="231" y="103" />
              <mxPoint x="231" y="147" />
            </Array>
            <mxPoint x="108.5" y="154" as="targetPoint" />
            <mxPoint as="offset" />
          </mxGeometry>
        </mxCell>
        <mxCell id="s-xXhrgxncU4U6OP28lx-7" value="AuthenticationManager" style="shape=umlLifeline;perimeter=lifelinePerimeter;whiteSpace=wrap;html=1;container=1;dropTarget=0;collapsible=0;recursiveResize=0;outlineConnect=0;portConstraint=eastwest;newEdgeStyle={&quot;curved&quot;:0,&quot;rounded&quot;:0};" parent="1" vertex="1">
          <mxGeometry x="297" y="40" width="143" height="708" as="geometry" />
        </mxCell>
        <mxCell id="s-xXhrgxncU4U6OP28lx-13" value="用户发送登录请求" style="html=1;verticalAlign=bottom;endArrow=block;curved=0;rounded=0;" parent="1" source="s-xXhrgxncU4U6OP28lx-1" target="s-xXhrgxncU4U6OP28lx-6" edge="1">
          <mxGeometry width="80" relative="1" as="geometry">
            <mxPoint x="55" y="121" as="sourcePoint" />
            <mxPoint x="135" y="121" as="targetPoint" />
            <Array as="points">
              <mxPoint x="88" y="121" />
            </Array>
          </mxGeometry>
        </mxCell>
        <mxCell id="s-xXhrgxncU4U6OP28lx-18" value="&lt;div&gt;AuthenticationManager 本身并不做验证处理，&lt;/div&gt;&lt;div&gt;他通过 for-each 遍历找到符合当前登录方式的一个 AuthenticationProvider，&lt;/div&gt;&lt;div&gt;并交给它进行验证处理，对于用户名密码登录方式，&lt;/div&gt;&lt;div&gt;这个 Provider 就是 DaoAuthenticationProvider&lt;/div&gt;" style="html=1;verticalAlign=bottom;endArrow=block;curved=0;rounded=0;" parent="1" edge="1">
          <mxGeometry width="80" relative="1" as="geometry">
            <mxPoint x="368" y="352" as="sourcePoint" />
            <mxPoint x="533" y="352" as="targetPoint" />
          </mxGeometry>
        </mxCell>
        <mxCell id="s-xXhrgxncU4U6OP28lx-24" value="返回UserDetails对象" style="html=1;verticalAlign=bottom;endArrow=open;dashed=1;endSize=8;curved=0;rounded=0;" parent="1" edge="1">
          <mxGeometry x="-0.0002" relative="1" as="geometry">
            <mxPoint x="687" y="406" as="sourcePoint" />
            <mxPoint x="533" y="406" as="targetPoint" />
            <mxPoint as="offset" />
          </mxGeometry>
        </mxCell>
        <mxCell id="2gi-IcAWOZ9MMK4t8qeL-2" value="DaoAuthenticationProvider" style="shape=umlLifeline;perimeter=lifelinePerimeter;whiteSpace=wrap;html=1;container=1;dropTarget=0;collapsible=0;recursiveResize=0;outlineConnect=0;portConstraint=eastwest;newEdgeStyle={&quot;curved&quot;:0,&quot;rounded&quot;:0};" parent="1" vertex="1">
          <mxGeometry x="451" y="40" width="165" height="708" as="geometry" />
        </mxCell>
        <mxCell id="2gi-IcAWOZ9MMK4t8qeL-3" value="UserDetailsService" style="shape=umlLifeline;perimeter=lifelinePerimeter;whiteSpace=wrap;html=1;container=1;dropTarget=0;collapsible=0;recursiveResize=0;outlineConnect=0;portConstraint=eastwest;newEdgeStyle={&quot;curved&quot;:0,&quot;rounded&quot;:0};" parent="1" vertex="1">
          <mxGeometry x="627" y="40" width="121" height="708" as="geometry" />
        </mxCell>
        <mxCell id="2gi-IcAWOZ9MMK4t8qeL-8" value="使用请求的帐号和密码构造&lt;div&gt;UsernamePasswordAuthenticationToken实例&lt;/div&gt;" style="html=1;align=left;spacingLeft=2;endArrow=block;rounded=0;edgeStyle=orthogonalEdgeStyle;curved=0;rounded=0;" parent="1" edge="1">
          <mxGeometry x="0.9965" y="-22" relative="1" as="geometry">
            <mxPoint x="175.5" y="209" as="sourcePoint" />
            <Array as="points">
              <mxPoint x="297" y="209" />
              <mxPoint x="297" y="253" />
            </Array>
            <mxPoint x="175.5" y="253" as="targetPoint" />
            <mxPoint as="offset" />
          </mxGeometry>
        </mxCell>
        <mxCell id="2gi-IcAWOZ9MMK4t8qeL-9" value="使用token实例调用authenticate方法" style="html=1;verticalAlign=bottom;endArrow=block;curved=0;rounded=0;" parent="1" edge="1">
          <mxGeometry width="80" relative="1" as="geometry">
            <mxPoint x="175.5" y="286" as="sourcePoint" />
            <mxPoint x="368" y="286" as="targetPoint" />
          </mxGeometry>
        </mxCell>
        <mxCell id="2gi-IcAWOZ9MMK4t8qeL-10" value="调用loadUserByUsername方法获取用户信息" style="html=1;verticalAlign=bottom;endArrow=block;curved=0;rounded=0;entryX=0.512;entryY=0.421;entryDx=0;entryDy=0;entryPerimeter=0;" parent="1" edge="1">
          <mxGeometry width="80" relative="1" as="geometry">
            <mxPoint x="533" y="384.9999999999999" as="sourcePoint" />
            <mxPoint x="688.952" y="384.9999999999999" as="targetPoint" />
          </mxGeometry>
        </mxCell>
        <mxCell id="2gi-IcAWOZ9MMK4t8qeL-17" value="PasswordEncoder" style="shape=umlLifeline;perimeter=lifelinePerimeter;whiteSpace=wrap;html=1;container=1;dropTarget=0;collapsible=0;recursiveResize=0;outlineConnect=0;portConstraint=eastwest;newEdgeStyle={&quot;curved&quot;:0,&quot;rounded&quot;:0};" parent="1" vertex="1">
          <mxGeometry x="759" y="40" width="110" height="708" as="geometry" />
        </mxCell>
        <mxCell id="2gi-IcAWOZ9MMK4t8qeL-25" value="alt" style="shape=umlFrame;whiteSpace=wrap;html=1;pointerEvents=0;recursiveResize=0;container=1;collapsible=0;width=170;" parent="1" vertex="1">
          <mxGeometry x="22" y="473" width="1067" height="250" as="geometry" />
        </mxCell>
        <mxCell id="2gi-IcAWOZ9MMK4t8qeL-26" value="[登录密码不正确&lt;span style=&quot;background-color: initial;&quot;&gt;]&lt;/span&gt;" style="text;html=1;" parent="2gi-IcAWOZ9MMK4t8qeL-25" vertex="1">
          <mxGeometry width="100" height="20" relative="1" as="geometry">
            <mxPoint x="20" y="40" as="offset" />
          </mxGeometry>
        </mxCell>
        <mxCell id="2gi-IcAWOZ9MMK4t8qeL-27" value="[登录密码正确]" style="line;strokeWidth=1;dashed=1;labelPosition=center;verticalLabelPosition=bottom;align=left;verticalAlign=top;spacingLeft=20;spacingTop=15;html=1;whiteSpace=wrap;" parent="2gi-IcAWOZ9MMK4t8qeL-25" vertex="1">
          <mxGeometry y="125" width="1067" height="10" as="geometry" />
        </mxCell>
        <mxCell id="2gi-IcAWOZ9MMK4t8qeL-34" value="抛出BadCredentialsException" style="html=1;align=left;spacingLeft=2;endArrow=block;rounded=0;edgeStyle=orthogonalEdgeStyle;curved=0;rounded=0;entryX=0.467;entryY=0.701;entryDx=0;entryDy=0;entryPerimeter=0;" parent="2gi-IcAWOZ9MMK4t8qeL-25" edge="1" target="2gi-IcAWOZ9MMK4t8qeL-2">
          <mxGeometry relative="1" as="geometry">
            <mxPoint x="513" y="33" as="sourcePoint" />
            <Array as="points">
              <mxPoint x="543" y="33" />
              <mxPoint x="543" y="63" />
            </Array>
            <mxPoint x="518" y="63" as="targetPoint" />
          </mxGeometry>
        </mxCell>
        <mxCell id="2gi-IcAWOZ9MMK4t8qeL-41" value="创建Authentication对象" style="html=1;align=left;spacingLeft=2;endArrow=block;rounded=0;edgeStyle=orthogonalEdgeStyle;curved=0;rounded=0;entryX=0.467;entryY=0.856;entryDx=0;entryDy=0;entryPerimeter=0;" parent="2gi-IcAWOZ9MMK4t8qeL-25" edge="1" target="2gi-IcAWOZ9MMK4t8qeL-2">
          <mxGeometry relative="1" as="geometry">
            <mxPoint x="513" y="143" as="sourcePoint" />
            <Array as="points">
              <mxPoint x="543" y="143" />
              <mxPoint x="543" y="173" />
            </Array>
            <mxPoint x="518" y="173" as="targetPoint" />
          </mxGeometry>
        </mxCell>
        <mxCell id="2gi-IcAWOZ9MMK4t8qeL-29" value="调用matches判断登录密码是否正确" style="html=1;verticalAlign=bottom;endArrow=block;curved=0;rounded=0;" parent="1" target="2gi-IcAWOZ9MMK4t8qeL-17" edge="1">
          <mxGeometry width="80" relative="1" as="geometry">
            <mxPoint x="528" y="440" as="sourcePoint" />
            <mxPoint x="809" y="440" as="targetPoint" />
          </mxGeometry>
        </mxCell>
        <mxCell id="2gi-IcAWOZ9MMK4t8qeL-30" value="如果正确返回true，否则返回false" style="html=1;verticalAlign=bottom;endArrow=open;dashed=1;endSize=8;curved=0;rounded=0;" parent="1" edge="1" target="2gi-IcAWOZ9MMK4t8qeL-2">
          <mxGeometry relative="1" as="geometry">
            <mxPoint x="813.5" y="459.5" as="sourcePoint" />
            <mxPoint x="528" y="459.5" as="targetPoint" />
          </mxGeometry>
        </mxCell>
        <mxCell id="2gi-IcAWOZ9MMK4t8qeL-31" value="AuthenticationFailureHandler" style="shape=umlLifeline;perimeter=lifelinePerimeter;whiteSpace=wrap;html=1;container=1;dropTarget=0;collapsible=0;recursiveResize=0;outlineConnect=0;portConstraint=eastwest;newEdgeStyle={&quot;curved&quot;:0,&quot;rounded&quot;:0};" parent="1" vertex="1">
          <mxGeometry x="836" y="341" width="165" height="407" as="geometry" />
        </mxCell>
        <mxCell id="2gi-IcAWOZ9MMK4t8qeL-32" value="AuthenticationSuccessHandler" style="shape=umlLifeline;perimeter=lifelinePerimeter;whiteSpace=wrap;html=1;container=1;dropTarget=0;collapsible=0;recursiveResize=0;outlineConnect=0;portConstraint=eastwest;newEdgeStyle={&quot;curved&quot;:0,&quot;rounded&quot;:0};" parent="1" vertex="1">
          <mxGeometry x="913" y="407" width="176" height="341" as="geometry" />
        </mxCell>
        <mxCell id="2gi-IcAWOZ9MMK4t8qeL-43" value="返回登录成功信息给客户端" style="html=1;verticalAlign=bottom;endArrow=open;dashed=1;endSize=8;curved=0;rounded=0;entryX=0.65;entryY=0.921;entryDx=0;entryDy=0;entryPerimeter=0;" parent="1" source="2gi-IcAWOZ9MMK4t8qeL-32" target="s-xXhrgxncU4U6OP28lx-1" edge="1">
          <mxGeometry relative="1" as="geometry">
            <mxPoint x="1045" y="693" as="sourcePoint" />
            <mxPoint x="61.5" y="693" as="targetPoint" />
          </mxGeometry>
        </mxCell>
        <mxCell id="2gi-IcAWOZ9MMK4t8qeL-38" value="返回错误信息给客户端" style="html=1;verticalAlign=bottom;endArrow=open;dashed=1;endSize=8;curved=0;rounded=0;exitX=0.503;exitY=0.614;exitDx=0;exitDy=0;exitPerimeter=0;" parent="1" source="2gi-IcAWOZ9MMK4t8qeL-31" target="s-xXhrgxncU4U6OP28lx-1" edge="1">
          <mxGeometry relative="1" as="geometry">
            <mxPoint x="938" y="588.84" as="sourcePoint" />
            <mxPoint x="58" y="582.996" as="targetPoint" />
          </mxGeometry>
        </mxCell>
        <mxCell id="2gi-IcAWOZ9MMK4t8qeL-37" value="HttpSecurity配置的异常被捕获并处理" style="html=1;verticalAlign=bottom;endArrow=block;curved=0;rounded=0;exitX=0.533;exitY=0.736;exitDx=0;exitDy=0;exitPerimeter=0;" parent="1" target="2gi-IcAWOZ9MMK4t8qeL-31" edge="1" source="2gi-IcAWOZ9MMK4t8qeL-2">
          <mxGeometry width="80" relative="1" as="geometry">
            <mxPoint x="550" y="561" as="sourcePoint" />
            <mxPoint x="630" y="561" as="targetPoint" />
          </mxGeometry>
        </mxCell>
        <mxCell id="2gi-IcAWOZ9MMK4t8qeL-42" value="调用HttpSecurity配置的" style="html=1;verticalAlign=bottom;endArrow=block;curved=0;rounded=0;exitX=0.521;exitY=0.877;exitDx=0;exitDy=0;exitPerimeter=0;" parent="1" target="2gi-IcAWOZ9MMK4t8qeL-32" edge="1" source="2gi-IcAWOZ9MMK4t8qeL-2">
          <mxGeometry width="80" relative="1" as="geometry">
            <mxPoint x="556.9849999999999" y="659.999" as="sourcePoint" />
            <mxPoint x="1044.5" y="659.999" as="targetPoint" />
          </mxGeometry>
        </mxCell>
      </root>
    </mxGraphModel>
  </diagram>
</mxfile>
